/* XPM */
static char *_535463403474[] = {
/* columns rows colors chars-per-pixel */
"24 24 2 1 ",
"  c white",
". c None",
/* pixels */
"..       ......       ..",
"..  ...  ......  ...  ..",
".. ....  ......  .... ..",
".. . .   ......   . . ..",
".. . . . ...... . . . ..",
"..        ....        ..",
".... . .. .... .. . ....",
"..... ... .... ... .....",
".. ...... .... ...... ..",
"..  ...   ....   ...  ..",
"..  ...   ....   ...  ..",
".. ..... ...... ..... ..",
"..  ...  ......  ...  ..",
"... .... ...... .... ...",
"... ... ........ ... ...",
"...     ........     ...",
".... . .......... . ....",
".... . .......... . ....",
".... . .......... . ....",
".... . .......... . ....",
"...... .......... ......",
"..... .  ......  . .....",
"...... .......... ......",
".......          ......."
};
