/* XPM */
static char *_535467326876[] = {
/* columns rows colors chars-per-pixel */
"24 24 6 1 ",
"  c #D70027",
". c #D90026",
"X c #D80027",
"o c #D90027",
"O c #D70028",
"+ c None",
/* pixels */
"X+++++++++++++++++++++++",
"+X++++++++++++++++++++++",
"++X+++++++++++++++++++++",
"+++X+++++XXXOOXX++++++++",
"++++X++XXX++++XXXXX+++++",
"+++XXX++++++++++++XXX+++",
"+XX+++X+++++++++++++XXX+",
"XX+++++X++++++++++++++XX",
"+X++++++X+++++++++++++X+",
"++X++++++X+++++++++++X++",
"++XX++++++X+++++++++XX++",
"+++X+++++++X++++++++X+++",
"++++X+++++++X++++++X++++",
"+++++X+++++++X++++X+++++",
"+++++XX+++++++X++XX+++++",
"++++++X++++++++X++++++++",
"+++++++X+++++++XX+++++++",
"++++++++X++++++XXX++++++",
"++++++++XX++++XX++X+++++",
"+++++++++X++++X++++X++++",
"++++++++++X++X++++++X+++",
"+++++++++++XX++++++++X++",
"+++++++++++XX+++++++++X+",
"+++++++++++++++++++++++X"
};
