/* XPM */
static char *_535103290807[] = {
/* columns rows colors chars-per-pixel */
"24 24 16 1 ",
"  c #90DB59",
". c #91DB59",
"X c #91DB5A",
"o c #90DB5B",
"O c #91DB5B",
"+ c #91DC59",
"@ c #91DD59",
"# c #92DC59",
"$ c #90DC5A",
"% c #91DC5A",
"& c #91DD5A",
"* c #90DC5B",
"= c #91DC5B",
"- c #92DC5A",
"; c #92DD5A",
": c None",
/* pixels */
"::::::::::::::::::::::::",
"::::::::::::::::%%%:::::",
":::::::::::::%%%%%%:::::",
":::::::::::%%%%%:X%:::::",
"::::::::%%%%%::::X%:::::",
"::::::%%%%%::::::X%:::::",
":%%%%%%%:::::::::X%:::::",
":%X:%%%::::::::::%%:::::",
":%:::%;::::::::::X%:::::",
":%:::%;::::::::::X%:::::",
":%:::%;:::::::::X%%:::::",
":%:::%%::::::%%%%%%%%:::",
":%:::%%:::::%%%%::X%%%::",
":%%%%%%::::%%%::::::%%::",
":%%%%%%%%::%%::::::::%X:",
"::::::&%%%%%%:%:::%%:&%:",
":::::::::%%%::%%:%%::%%:",
"::::::::::%%::%%%%:::%%:",
":::::::::::%%::%%::::%%:",
":::::::::::%%::::::::%;:",
"::::::::::::%%::::::%%::",
"::::::::::::%%%%X%;%%X::",
"::::::::::::::%%%%%%::::",
"::::::::::::::::::::::::"
};
