/* XPM */
static char *_535464138016[] = {
/* columns rows colors chars-per-pixel */
"24 24 9 1 ",
"  c #91DB59",
". c #91DB5A",
"X c #91DD59",
"o c #92DC59",
"O c #90DC5A",
"+ c #91DC5A",
"@ c #91DC5B",
"# c #92DC5A",
"$ c None",
/* pixels */
"$$$$$$$$$$$$$$$$$$$$$$$$",
"$$$$$$$$$$$$$$$$$$$$$$$$",
"$$$$$$$$$$$$$$$$$$$$$$$$",
"$$$$$$$$++.++.@+$$$$$$$$",
"$$$$$++++++++++++++$$$$$",
"$$$+++++++.++.+++++++$$$",
"$$+++++$$$$$$$$$$+++++$$",
"$++++$$$$$$$$$$$$$$++++$",
"+++$$$$$$o++++o$$$$$$+++",
"$.$$$$$++++++++++$$$$$.$",
"$$$$$++++++++++++++$$$$$",
"$$$$++++$$$$$$$$++++$$$$",
"$$$$+++$$$$$$$$$$+++$$$$",
"$$$$$$$$$.o++o.$$$$$$$$$",
"$$$$$$$$++++++++$$$$$$$$",
"$$$$$$$o++o..o++o$$$$$$$",
"$$$$$$$$.$$$$$$.$$$$$$$$",
"$$$$$$$$$$$$$$$$$$$$$$$$",
"$$$$$$$$$$$++$$$$$$$$$$$",
"$$$$$$$$$$++++$$$$$$$$$$",
"$$$$$$$$$$$++$$$$$$$$$$$",
"$$$$$$$$$$$$$$$$$$$$$$$$",
"$$$$$$$$$$$$$$$$$$$$$$$$",
"$$$$$$$$$$$$$$$$$$$$$$$$"
};
