/* XPM */
static char *_535461815080[] = {
/* columns rows colors chars-per-pixel */
"24 24 9 1 ",
"  c #FFDA43",
". c #FFDB43",
"X c #FFD944",
"o c #FFD945",
"O c #FFDA44",
"+ c #FFDB44",
"@ c #FFDA45",
"# c #FFDB45",
"$ c None",
/* pixels */
"$$$$$$$$$$$$$$$$$$$$$$$$",
"$$$$$$$$$$$$OO$$$$$$$$$$",
"$$$$$$$$OOOOOO.$$$$$$$$$",
"$$$$$$OOOOOOOO$$OO$$$$$$",
"$$$$$OOOOO$$O$$OOOO$$$$$",
"$$$$OOOO$$$$$$$$OOOO$$$$",
"$$$OOO$$$$$$$$$$$$OOO$$$",
"$$$OOO$$$$$$$$$$$$OOO$$$",
"$$OOO$$$$OOO$$$$$$$OOO$$",
"$$OOO$$$$$$$OO$$$$$OOO$$",
"$$OO$$$$$OOO$OO$$$$$OO$$",
"$$OO$$$$$$$$O$O$$$$$OO$$",
"$$OO$$$$$$OO$O$O$$$$OO$$",
"$$OO$$$$$$$O$O$O$$$$OO$$",
"$$OOO$$$$$$$$O$O$$$OOO$$",
"$$@OO$$$$$$$$$$$$$$OOO$$",
"$$$OOO$$$$$$$$$$$$OOO$$$",
"$$$@OOO$$$$$$$$$$$OOO$$$",
"$$$$OOOO$$$$$$$$OOOO$$$$",
"$$$$$OOOO$$O$$OOOOO$$$$$",
"$$$$$$OOO$OOOOOOOO$$$$$$",
"$$$$$$$$$OOOOOOO$$$$$$$$",
"$$$$$$$$$$#O$$$$$$$$$$$$",
"$$$$$$$$$$$$$$$$$$$$$$$$"
};
